<?xml version="1.0" standalone="no"?>
<!DOCTYPE svg PUBLIC "-//W3C//DTD SVG 20010904//EN"
 "http://www.w3.org/TR/2001/REC-SVG-20010904/DTD/svg10.dtd">
<svg version="1.0" xmlns="http://www.w3.org/2000/svg"
 width="612.000000pt" height="612.000000pt" viewBox="0 0 612.000000 612.000000"
 preserveAspectRatio="xMidYMid meet">
<metadata>
Created by potrace 1.14, written by Peter Selinger 2001-2017
</metadata>
<g transform="translate(0.000000,612.000000) scale(0.100000,-0.100000)"
fill="#000000" stroke="none">
<path d="M2797 5472 c-45 -13 -89 -30 -98 -38 -8 -8 -18 -11 -22 -8 -3 3 -12
-3 -19 -15 -7 -12 -16 -21 -20 -21 -11 0 -98 -89 -98 -99 0 -5 -4 -11 -8 -13
-26 -11 -73 -112 -77 -168 -1 -14 -10 -61 -19 -105 -19 -86 -22 -186 -6 -214
13 -25 1 -33 -23 -16 -17 12 -24 12 -47 0 -48 -25 -53 -75 -16 -183 32 -93 72
-159 107 -178 16 -8 30 -20 30 -27 1 -6 3 -23 4 -37 2 -14 4 -58 6 -98 1 -61
-1 -76 -19 -95 -11 -12 -33 -44 -48 -72 -15 -27 -32 -55 -38 -61 -14 -14 -32
-38 -106 -144 -33 -47 -70 -98 -82 -113 -44 -53 -174 -159 -303 -247 -71 -48
-148 -104 -170 -125 -22 -20 -73 -62 -112 -92 -119 -90 -193 -198 -268 -392
-57 -147 -67 -206 -71 -411 -2 -102 -6 -203 -8 -225 -3 -32 2 -46 26 -77 28
-33 30 -41 23 -84 -4 -26 -13 -57 -20 -68 -13 -21 -13 -44 1 -74 4 -9 8 -120
9 -247 1 -142 8 -276 18 -350 9 -66 23 -190 32 -275 9 -85 23 -186 32 -223 8
-37 12 -74 10 -82 -14 -35 117 -187 207 -239 67 -40 97 -41 281 -12 55 8 111
16 126 16 25 0 25 -1 19 -55 -3 -30 -5 -90 -4 -132 4 -152 15 -344 21 -358 4
-13 169 -15 1235 -15 980 0 1229 3 1225 13 -2 6 -12 39 -21 72 -10 33 -37 96
-60 140 -24 44 -50 103 -59 130 -22 66 -60 259 -72 369 -4 27 -10 57 -14 65
-10 19 -3 79 10 87 18 10 9 30 -18 40 -23 8 -34 27 -62 98 -45 116 -42 119 95
76 122 -38 220 -46 299 -23 106 30 274 129 340 199 68 73 81 96 108 189 18 59
32 136 28 150 -1 5 -3 18 -4 27 -1 10 -6 18 -11 18 -5 0 -6 3 -3 6 6 6 -23 55
-50 82 -7 8 -10 19 -6 25 3 7 3 9 -1 5 -5 -4 -20 4 -34 17 -21 20 -29 22 -41
12 -12 -9 -13 -9 -7 0 4 7 2 13 -3 13 -6 0 -11 -4 -11 -10 0 -5 -5 -10 -10
-10 -6 0 -10 8 -8 17 2 12 -9 20 -42 30 -25 7 -64 22 -87 33 -24 11 -54 20
-67 20 -19 0 -24 5 -21 19 4 22 26 63 40 74 6 5 4 7 -4 5 -8 -3 -22 -19 -30
-36 -17 -34 -45 -49 -64 -34 -7 5 -36 15 -64 22 -29 6 -53 18 -53 25 0 15 47
104 66 126 8 8 14 22 14 30 0 9 -5 6 -13 -6 -6 -12 -21 -36 -32 -54 -32 -53
-115 -155 -115 -141 0 7 -7 10 -16 6 -8 -3 -12 -2 -9 4 3 6 2 10 -4 10 -16 0
-25 -22 -11 -30 9 -5 9 -9 1 -14 -6 -4 -11 -3 -11 3 0 8 -55 26 -62 20 -2 -1
-13 3 -24 9 -16 8 -20 18 -17 37 5 23 2 25 -29 25 -19 0 -48 -4 -64 -10 -16
-5 -58 -11 -93 -13 -61 -4 -66 -2 -100 28 -47 42 -66 51 -123 59 -38 6 -48 11
-48 27 0 10 1 20 2 22 1 1 -5 13 -12 27 -8 14 -14 66 -16 125 -1 55 -5 136 -8
180 -22 290 -30 364 -42 394 -24 58 -44 159 -44 224 -1 86 -24 239 -49 318
-33 103 -82 156 -268 286 -51 35 -96 70 -100 76 -4 7 -8 29 -9 51 -1 21 -10
62 -20 91 l-18 53 32 44 c113 152 148 231 151 343 2 46 9 80 20 100 25 41 29
62 36 195 6 103 4 119 -13 153 -16 31 -18 44 -11 70 9 29 13 148 6 187 -7 37
-51 157 -63 171 -8 8 -14 20 -14 26 0 6 -7 14 -16 17 -8 3 -13 10 -9 15 3 5 1
12 -5 16 -6 4 -8 11 -5 16 4 5 -1 9 -9 9 -9 0 -16 7 -16 15 0 19 -92 111 -132
131 -16 8 -62 26 -101 39 -91 29 -172 29 -280 -3z m2079 -3704 c-8 13 40 10
52 -3 4 -4 1 -5 -5 -1 -7 4 -13 2 -13 -3 0 -6 10 -11 23 -11 21 -1 20 -2 -5
-16 -16 -8 -28 -19 -28 -25 0 -6 -5 -7 -10 -4 -6 4 -7 12 -3 18 4 7 -2 5 -12
-3 -11 -9 -16 -10 -11 -2 4 6 3 12 -2 12 -5 0 -12 11 -14 25 -5 21 -3 23 15
14 13 -8 17 -8 13 -1z m74 -47 c0 -5 -7 -12 -16 -15 -21 -8 -24 -8 -24 5 0 5
5 7 10 4 6 -3 10 -1 10 4 0 6 5 11 10 11 6 0 10 -4 10 -9z"/>
<path d="M4739 2720 c0 -8 -3 -27 -5 -42 -3 -16 0 -28 6 -28 6 0 9 -4 5 -9 -3
-5 -1 -12 5 -16 6 -4 8 -10 5 -15 -3 -5 -1 -11 4 -14 5 -3 7 -16 4 -29 -4 -20
-3 -20 7 -4 9 14 9 22 0 33 -7 7 -9 14 -5 14 4 0 3 6 -2 13 -6 6 -9 29 -8 49
1 20 -2 43 -6 50 -7 10 -9 10 -10 -2z"/>
<path d="M4860 2711 c0 -5 9 -7 20 -4 11 3 20 7 20 9 0 2 -9 4 -20 4 -11 0
-20 -4 -20 -9z"/>
<path d="M4873 2675 c-3 -10 0 -21 8 -26 22 -14 28 -11 22 11 -7 28 -22 35
-30 15z"/>
<path d="M4870 2633 c0 -4 9 -17 21 -29 11 -12 22 -30 23 -40 2 -10 8 -20 15
-22 11 -4 -11 57 -32 86 -10 13 -27 16 -27 5z"/>
<path d="M4760 2441 c0 -6 5 -13 10 -16 6 -3 10 1 10 9 0 9 -4 16 -10 16 -5 0
-10 -4 -10 -9z"/>
<path d="M4940 2419 c0 -5 5 -7 10 -4 6 3 10 8 10 11 0 2 -4 4 -10 4 -5 0 -10
-5 -10 -11z"/>
<path d="M4735 2390 c-8 -13 -1 -24 14 -19 6 3 7 10 2 18 -6 10 -10 10 -16 1z"/>
<path d="M4907 2344 c-15 -26 -27 -50 -25 -55 2 -5 12 7 23 28 11 21 24 41 29
44 4 4 7 12 5 18 -2 6 -17 -10 -32 -35z"/>
<path d="M4690 2300 c-6 -11 -8 -20 -6 -20 3 0 10 9 16 20 6 11 8 20 6 20 -3
0 -10 -9 -16 -20z"/>
<path d="M4792 2140 c-17 -27 -28 -50 -24 -50 4 0 20 23 35 50 36 65 29 65
-11 0z"/>
<path d="M4741 2058 c-14 -23 -14 -23 8 -4 22 20 25 26 13 26 -4 0 -13 -10
-21 -22z"/>
</g>
</svg>
